<svg width="13" height="11" viewBox="0 0 13 11" fill="none" xmlns="http://www.w3.org/2000/svg">
<path d="M6.47059 8.24029C7.54471 8.24029 8.41177 7.3909 8.41177 6.33868C8.41177 5.62875 8.01706 5.00756 7.44118 4.68429L1.15824 1.12195L4.73647 7.19441C5.06 7.8156 5.71353 8.24029 6.47059 8.24029ZM6.47059 0C5.29941 0 4.20588 0.316934 3.25471 0.836706L4.61353 1.60369C5.17647 1.38817 5.82353 1.26774 6.47059 1.26774C9.33059 1.26774 11.6471 3.53698 11.6471 6.33868C11.6471 7.73953 11.0712 9.00727 10.1329 9.92004H10.1265C10.0665 9.97868 10.0189 10.0483 9.98643 10.125C9.95396 10.2017 9.93724 10.2839 9.93724 10.3669C9.93724 10.4499 9.95396 10.5321 9.98643 10.6088C10.0189 10.6855 10.0665 10.7552 10.1265 10.8138C10.3788 11.061 10.7929 11.061 11.0453 10.8201C11.6471 10.2323 12.1244 9.5338 12.4497 8.76473C12.7751 7.99566 12.9421 7.17118 12.9412 6.33868C12.9412 2.85241 10.0294 0 6.47059 0ZM0 6.33868C0 8.08816 0.724706 9.67283 1.89588 10.8201C2.14824 11.061 2.55588 11.061 2.80824 10.8138C2.86822 10.7552 2.91581 10.6855 2.94828 10.6088C2.98075 10.5321 2.99746 10.4499 2.99746 10.3669C2.99746 10.2839 2.98075 10.2017 2.94828 10.125C2.91581 10.0483 2.86822 9.97868 2.80824 9.92004C2.32702 9.45055 1.94546 8.89237 1.68559 8.27769C1.42571 7.66301 1.29266 7.004 1.29412 6.33868C1.29412 5.70481 1.41706 5.07095 1.64353 4.50047L0.860588 3.16934C0.323529 4.12014 0 5.18504 0 6.33868Z" fill="#787878"/>
</svg>
