<svg width="30" height="30" viewBox="0 0 30 30" fill="none" xmlns="http://www.w3.org/2000/svg">
<g id="pepicons-pop:car">
<g id="Group">
<path id="Vector" fill-rule="evenodd" clip-rule="evenodd" d="M8.69379 3.36191C8.02872 3.52292 7.42038 3.86284 6.93466 4.34485C6.44895 4.82686 6.10439 5.43259 5.93829 6.09641L4.24329 12.8809C3.50518 13.1353 2.86483 13.6137 2.4115 14.2493C1.95817 14.885 1.71444 15.6462 1.71429 16.4269V20.9269C1.71429 21.9215 2.10938 22.8753 2.81264 23.5786C3.51591 24.2818 4.46973 24.6769 5.46429 24.6769H24.9643C25.9589 24.6769 26.9127 24.2818 27.6159 23.5786C28.3192 22.8753 28.7143 21.9215 28.7143 20.9269V16.4269C28.7143 15.6464 28.4707 14.8853 28.0177 14.2497C27.5647 13.614 26.9246 13.1356 26.1868 12.8809L24.4903 6.09641C24.3243 5.43277 23.98 4.82718 23.4946 4.34518C23.0091 3.86319 22.4011 3.52316 21.7363 3.36191C19.6015 2.83967 17.412 2.57429 15.2143 2.57141C13.0393 2.57141 10.8658 2.83541 8.69379 3.36191ZM5.46429 15.6769C5.79889 15.6768 6.12384 15.5649 6.38749 15.3588C6.65113 15.1528 6.83832 14.8646 6.91929 14.5399L8.84829 6.82391C8.88149 6.69092 8.9505 6.56957 9.04781 6.47305C9.14513 6.37653 9.26704 6.30852 9.40029 6.27641C11.3033 5.81089 13.2551 5.57421 15.2143 5.57141C17.1735 5.57406 19.1253 5.81073 21.0283 6.27641C21.1613 6.30876 21.2829 6.37688 21.3799 6.47338C21.4769 6.56989 21.5457 6.69111 21.5788 6.82391L23.5078 14.5399C23.5888 14.8646 23.776 15.1528 24.0396 15.3588C24.3032 15.5649 24.6282 15.6768 24.9628 15.6769C25.1617 15.6769 25.3525 15.7559 25.4931 15.8966C25.6338 16.0372 25.7128 16.228 25.7128 16.4269V20.9269C25.7128 21.1258 25.6338 21.3166 25.4931 21.4572C25.3525 21.5979 25.1617 21.6769 24.9628 21.6769H5.46279C5.26388 21.6769 5.07312 21.5979 4.93246 21.4572C4.79181 21.3166 4.71279 21.1258 4.71279 20.9269V16.4269C4.71279 16.228 4.79181 16.0372 4.93246 15.8966C5.07312 15.7559 5.26538 15.6769 5.46429 15.6769Z" fill="white"/>
<path id="Vector_2" d="M24.9643 18.6769C24.9643 19.2736 24.7272 19.8459 24.3053 20.2679C23.8833 20.6898 23.311 20.9269 22.7143 20.9269C22.1176 20.9269 21.5453 20.6898 21.1233 20.2679C20.7013 19.8459 20.4643 19.2736 20.4643 18.6769C20.4643 18.0801 20.7013 17.5078 21.1233 17.0859C21.5453 16.6639 22.1176 16.4269 22.7143 16.4269C23.311 16.4269 23.8833 16.6639 24.3053 17.0859C24.7272 17.5078 24.9643 18.0801 24.9643 18.6769ZM9.96429 18.6769C9.96429 19.2736 9.72724 19.8459 9.30528 20.2679C8.88333 20.6898 8.31103 20.9269 7.71429 20.9269C7.11756 20.9269 6.54526 20.6898 6.1233 20.2679C5.70135 19.8459 5.46429 19.2736 5.46429 18.6769C5.46429 18.0801 5.70135 17.5078 6.1233 17.0859C6.54526 16.6639 7.11756 16.4269 7.71429 16.4269C8.31103 16.4269 8.88333 16.6639 9.30528 17.0859C9.72724 17.5078 9.96429 18.0801 9.96429 18.6769ZM6.21429 22.4269C6.81103 22.4269 7.38333 22.6639 7.80528 23.0859C8.22724 23.5078 8.46429 24.0801 8.46429 24.6769V26.1769C8.46429 26.7736 8.22724 27.3459 7.80528 27.7679C7.38333 28.1898 6.81103 28.4269 6.21429 28.4269C5.61756 28.4269 5.04526 28.1898 4.6233 27.7679C4.20135 27.3459 3.96429 26.7736 3.96429 26.1769V24.6769C3.96429 24.0801 4.20135 23.5078 4.6233 23.0859C5.04526 22.6639 5.61756 22.4269 6.21429 22.4269ZM24.2143 22.4269C24.811 22.4269 25.3833 22.6639 25.8053 23.0859C26.2272 23.5078 26.4643 24.0801 26.4643 24.6769V26.1769C26.4643 26.7736 26.2272 27.3459 25.8053 27.7679C25.3833 28.1898 24.811 28.4269 24.2143 28.4269C23.6176 28.4269 23.0453 28.1898 22.6233 27.7679C22.2013 27.3459 21.9643 26.7736 21.9643 26.1769V24.6769C21.9643 24.0801 22.2013 23.5078 22.6233 23.0859C23.0453 22.6639 23.6176 22.4269 24.2143 22.4269Z" fill="white"/>
<path id="Vector_3" fill-rule="evenodd" clip-rule="evenodd" d="M18.5068 6.67688H11.9218C11.2354 6.67668 10.5697 6.91184 10.0358 7.34315C9.50184 7.77445 9.13194 8.37581 8.9878 9.04688L8.3443 12.0469C8.25032 12.4844 8.25542 12.9374 8.35923 13.3728C8.46304 13.8081 8.66292 14.2147 8.94423 14.5627C9.22555 14.9107 9.58117 15.1914 9.98503 15.3842C10.3889 15.577 10.8308 15.677 11.2783 15.6769H19.1503C19.5978 15.6771 20.0396 15.5771 20.4435 15.3843C20.8473 15.1915 21.2028 14.9108 21.484 14.5627C21.7652 14.2146 21.965 13.808 22.0686 13.3726C22.1722 12.9373 22.177 12.4843 22.0828 12.0469L21.4393 9.04688C21.2952 8.37606 20.9255 7.77489 20.3919 7.34362C19.8583 6.91234 19.1929 6.67702 18.5068 6.67688ZM11.2768 12.6769L11.9218 9.67688H18.5068L19.1503 12.6769H11.2768Z" fill="white"/>
</g>
</g>
</svg>
