<svg width="35" height="35" viewBox="0 0 35 35" fill="none" xmlns="http://www.w3.org/2000/svg">
<g id="lucide:car">
<g id="Group">
<path id="Vector" d="M27.7084 24.7917H30.625C31.5 24.7917 32.0834 24.2084 32.0834 23.3334V18.9584C32.0834 17.6459 31.0625 16.4792 29.8959 16.1875C27.2709 15.4584 23.3334 14.5834 23.3334 14.5834C23.3334 14.5834 21.4375 12.5417 20.125 11.2292C19.3959 10.6459 18.5209 10.2084 17.5 10.2084H7.29169C6.41669 10.2084 5.68752 10.7917 5.25002 11.5209L3.20835 15.75C3.01524 16.3133 2.91669 16.9046 2.91669 17.5V23.3334C2.91669 24.2084 3.50002 24.7917 4.37502 24.7917H7.29169" stroke="white" stroke-width="2" stroke-linecap="round" stroke-linejoin="round"/>
<path id="Vector_2" d="M10.2084 27.7083C11.8192 27.7083 13.125 26.4025 13.125 24.7917C13.125 23.1808 11.8192 21.875 10.2084 21.875C8.59752 21.875 7.29169 23.1808 7.29169 24.7917C7.29169 26.4025 8.59752 27.7083 10.2084 27.7083Z" stroke="white" stroke-width="2" stroke-linecap="round" stroke-linejoin="round"/>
<path id="Vector_3" d="M13.125 24.7917H21.875" stroke="white" stroke-width="2" stroke-linecap="round" stroke-linejoin="round"/>
<path id="Vector_4" d="M24.7917 27.7083C26.4025 27.7083 27.7083 26.4025 27.7083 24.7917C27.7083 23.1808 26.4025 21.875 24.7917 21.875C23.1808 21.875 21.875 23.1808 21.875 24.7917C21.875 26.4025 23.1808 27.7083 24.7917 27.7083Z" stroke="white" stroke-width="2" stroke-linecap="round" stroke-linejoin="round"/>
</g>
</g>
</svg>
