<svg width="16" height="15" viewBox="0 0 16 15" fill="none" xmlns="http://www.w3.org/2000/svg">
<g id="ph:x-bold">
<path id="Vector" d="M12.7162 11.2212C12.8483 11.3533 12.9225 11.5325 12.9225 11.7193C12.9225 11.9061 12.8483 12.0852 12.7162 12.2173C12.5841 12.3494 12.4049 12.4236 12.2181 12.4236C12.0313 12.4236 11.8522 12.3494 11.7201 12.2173L7.99997 8.49604L4.27869 12.2162C4.1466 12.3483 3.96744 12.4225 3.78064 12.4225C3.59383 12.4225 3.41468 12.3483 3.28259 12.2162C3.1505 12.0841 3.07629 11.9049 3.07629 11.7181C3.07629 11.5313 3.1505 11.3522 3.28259 11.2201L7.00388 7.49995L3.28376 3.77866C3.15167 3.64657 3.07747 3.46742 3.07747 3.28061C3.07747 3.09381 3.15167 2.91466 3.28376 2.78257C3.41585 2.65048 3.59501 2.57627 3.78181 2.57627C3.96861 2.57627 4.14777 2.65048 4.27986 2.78257L7.99997 6.50386L11.7213 2.78198C11.8534 2.64989 12.0325 2.57568 12.2193 2.57568C12.4061 2.57568 12.5853 2.64989 12.7174 2.78198C12.8494 2.91407 12.9237 3.09322 12.9237 3.28003C12.9237 3.46683 12.8494 3.64599 12.7174 3.77808L8.99607 7.49995L12.7162 11.2212Z" fill="black"/>
</g>
</svg>
