<svg width="42" height="42" viewBox="0 0 42 42" fill="none" xmlns="http://www.w3.org/2000/svg">
<g id="tabler:engine">
<path id="Vector" d="M5.37502 17.5277V27.9444M21 8.84717V14.0555M17.5278 8.84717H24.4722M8.84725 22.7361H5.37502M10.5834 17.5277H14.0556L17.5278 14.0555H23.3993C23.7217 14.0557 24.0376 14.1456 24.3117 14.3151C24.5858 14.4847 24.8073 14.7272 24.9514 15.0156L27.4653 20.0399C27.6094 20.3282 27.8309 20.5707 28.105 20.7403C28.3791 20.9099 28.6951 20.9998 29.0174 20.9999H31.4167V17.5277H34.8889C35.3494 17.5277 35.7909 17.7106 36.1165 18.0362C36.4421 18.3618 36.625 18.8034 36.625 19.2638V29.6805C36.625 30.1409 36.4421 30.5825 36.1165 30.9081C35.7909 31.2337 35.3494 31.4166 34.8889 31.4166H31.4167V27.9444H26.2084V31.4166C26.2084 31.8771 26.0254 32.3186 25.6999 32.6442C25.3743 32.9698 24.9327 33.1527 24.4722 33.1527H18.4566C18.1709 33.1528 17.8895 33.0823 17.6376 32.9475C17.3856 32.8127 17.1708 32.6179 17.0122 32.3802L14.0556 27.9444H10.5834V17.5277Z" stroke="white" stroke-width="2" stroke-linecap="round" stroke-linejoin="round"/>
</g>
</svg>
