<svg width="24" height="24" viewBox="0 0 24 24" fill="none" xmlns="http://www.w3.org/2000/svg">
<g id="mingcute:hashtag-fill" clip-path="url(#clip0_30_50)">
<g id="Group">
<path id="Vector" fill-rule="evenodd" clip-rule="evenodd" d="M9.686 2.51101C9.88157 2.53536 10.0704 2.59801 10.2418 2.69539C10.4131 2.79276 10.5636 2.92294 10.6846 3.0785C10.8056 3.23405 10.8948 3.41193 10.947 3.60196C10.9992 3.79199 11.0135 3.99046 10.989 4.18601L10.637 7.00001H14.613L15.012 3.81401C15.0613 3.41923 15.2655 3.06022 15.5795 2.81595C15.8935 2.57169 16.2917 2.46217 16.6865 2.51151C17.0813 2.56084 17.4403 2.76497 17.6846 3.079C17.9288 3.39303 18.0383 3.79123 17.989 4.18601L17.637 7.00001H20C20.3978 7.00001 20.7794 7.15804 21.0607 7.43934C21.342 7.72065 21.5 8.10218 21.5 8.50001C21.5 8.89783 21.342 9.27936 21.0607 9.56067C20.7794 9.84197 20.3978 10 20 10H17.262L16.762 14H19.5C19.8978 14 20.2794 14.158 20.5607 14.4393C20.842 14.7206 21 15.1022 21 15.5C21 15.8978 20.842 16.2794 20.5607 16.5607C20.2794 16.842 19.8978 17 19.5 17H16.387L15.989 20.186C15.9397 20.5808 15.7355 20.9398 15.4215 21.1841C15.1075 21.4283 14.7093 21.5378 14.3145 21.4885C13.9197 21.4392 13.5607 21.235 13.3165 20.921C13.0722 20.607 12.9627 20.2088 13.012 19.814L13.363 17H9.387L8.989 20.186C8.96457 20.3815 8.90189 20.5702 8.80452 20.7415C8.70715 20.9127 8.577 21.0631 8.42151 21.1841C8.26602 21.305 8.08822 21.3941 7.89828 21.4464C7.70834 21.4986 7.50997 21.5129 7.3145 21.4885C7.11903 21.4641 6.93028 21.4014 6.75903 21.304C6.58779 21.2067 6.4374 21.0765 6.31645 20.921C6.1955 20.7655 6.10636 20.5877 6.05413 20.3978C6.00189 20.2078 5.98757 20.0095 6.012 19.814L6.363 17H4.5C4.10218 17 3.72064 16.842 3.43934 16.5607C3.15804 16.2794 3 15.8978 3 15.5C3 15.1022 3.15804 14.7206 3.43934 14.4393C3.72064 14.158 4.10218 14 4.5 14H6.738L7.238 10H5C4.60218 10 4.22064 9.84197 3.93934 9.56067C3.65804 9.27936 3.5 8.89783 3.5 8.50001C3.5 8.10218 3.65804 7.72065 3.93934 7.43934C4.22064 7.15804 4.60218 7.00001 5 7.00001H7.613L8.012 3.81401C8.03624 3.61844 8.09877 3.42957 8.19603 3.25819C8.29329 3.0868 8.42336 2.93626 8.57882 2.81516C8.73428 2.69406 8.91207 2.60478 9.10205 2.55242C9.29202 2.50006 9.49045 2.48665 9.686 2.51101ZM13.74 14L14.24 10H10.263L9.763 14H13.74Z" fill="#7A7A7A"/>
</g>
</g>
<defs>
<clipPath id="clip0_30_50">
<rect width="24" height="24" fill="white"/>
</clipPath>
</defs>
</svg>
