<svg width="25" height="24" viewBox="0 0 25 24" fill="none" xmlns="http://www.w3.org/2000/svg">
<g id="Hicon / Linear / Left 1">
<g id="Left 1">
<path id="Vector" d="M20.5 12.75C20.9142 12.75 21.25 12.4142 21.25 12C21.25 11.5858 20.9142 11.25 20.5 11.25V12.75ZM4.5 11.25C4.08579 11.25 3.75 11.5858 3.75 12C3.75 12.4142 4.08579 12.75 4.5 12.75V11.25ZM7.97204 17.5327C8.26624 17.8243 8.74111 17.8222 9.03269 17.528C9.32427 17.2338 9.32216 16.7589 9.02796 16.4673L7.97204 17.5327ZM6.73703 15.2527L7.26499 14.72H7.26499L6.73703 15.2527ZM6.73703 8.74731L6.20907 8.21462H6.20907L6.73703 8.74731ZM9.02796 7.53269C9.32216 7.24111 9.32428 6.76624 9.03269 6.47204C8.74111 6.17784 8.26624 6.17573 7.97204 6.46731L9.02796 7.53269ZM4.51989 12.3133L3.77591 12.4082L3.77591 12.4082L4.51989 12.3133ZM4.51989 11.6867L3.77591 11.5918L3.77591 11.5918L4.51989 11.6867ZM20.5 11.25H4.5V12.75H20.5V11.25ZM9.02796 16.4673L7.26499 14.72L6.20907 15.7854L7.97204 17.5327L9.02796 16.4673ZM7.26499 9.28L9.02796 7.53269L7.97204 6.46731L6.20907 8.21462L7.26499 9.28ZM7.26499 14.72C6.5495 14.0109 6.05869 13.5228 5.72659 13.1093C5.404 12.7076 5.29332 12.4496 5.26387 12.2185L3.77591 12.4082C3.85469 13.0263 4.14963 13.5412 4.55706 14.0485C4.95498 14.544 5.51863 15.1011 6.20907 15.7854L7.26499 14.72ZM6.20907 8.21462C5.51863 8.89892 4.95498 9.45597 4.55706 9.95146C4.14963 10.4588 3.8547 10.9737 3.77591 11.5918L5.26387 11.7815C5.29332 11.5504 5.404 11.2924 5.72659 10.8907C6.05869 10.4772 6.5495 9.98914 7.26499 9.28L6.20907 8.21462ZM5.26387 12.2185C5.24538 12.0734 5.24538 11.9266 5.26387 11.7815L3.77591 11.5918C3.74136 11.8629 3.74136 12.1371 3.77591 12.4082L5.26387 12.2185Z" fill="#72777A"/>
</g>
</g>
</svg>
