<svg width="115" height="25" viewBox="0 0 115 25" fill="none" xmlns="http://www.w3.org/2000/svg">
<path d="M9.86 8.78C9.43333 8.43333 9.00667 8.18 8.58 8.02C8.15333 7.84667 7.74 7.76 7.34 7.76C6.83333 7.76 6.42 7.88 6.1 8.12C5.78 8.36 5.62 8.67333 5.62 9.06C5.62 9.32667 5.7 9.54667 5.86 9.72C6.02 9.89333 6.22667 10.0467 6.48 10.18C6.74667 10.3 7.04 10.4067 7.36 10.5C7.69333 10.5933 8.02 10.6933 8.34 10.8C9.62 11.2267 10.5533 11.8 11.14 12.52C11.74 13.2267 12.04 14.1533 12.04 15.3C12.04 16.0733 11.9067 16.7733 11.64 17.4C11.3867 18.0267 11.0067 18.5667 10.5 19.02C10.0067 19.46 9.39333 19.8 8.66 20.04C7.94 20.2933 7.12 20.42 6.2 20.42C4.29333 20.42 2.52667 19.8533 0.9 18.72L2.58 15.56C3.16667 16.08 3.74667 16.4667 4.32 16.72C4.89333 16.9733 5.46 17.1 6.02 17.1C6.66 17.1 7.13333 16.9533 7.44 16.66C7.76 16.3667 7.92 16.0333 7.92 15.66C7.92 15.4333 7.88 15.24 7.8 15.08C7.72 14.9067 7.58667 14.7533 7.4 14.62C7.21333 14.4733 6.96667 14.34 6.66 14.22C6.36667 14.1 6.00667 13.9667 5.58 13.82C5.07333 13.66 4.57333 13.4867 4.08 13.3C3.6 13.1 3.16667 12.84 2.78 12.52C2.40667 12.2 2.1 11.8 1.86 11.32C1.63333 10.8267 1.52 10.2067 1.52 9.46C1.52 8.71333 1.64 8.04 1.88 7.44C2.13333 6.82667 2.48 6.30667 2.92 5.88C3.37333 5.44 3.92 5.1 4.56 4.86C5.21333 4.62 5.94 4.5 6.74 4.5C7.48667 4.5 8.26667 4.60667 9.08 4.82C9.89333 5.02 10.6733 5.32 11.42 5.72L9.86 8.78ZM13.7697 3.4H17.3897V11.04C17.883 10.44 18.383 10.04 18.8897 9.84C19.3964 9.62667 19.9897 9.52 20.6697 9.52C21.963 9.52 22.9364 9.88 23.5897 10.6C24.2564 11.3067 24.5897 12.2667 24.5897 13.48V20H20.9697V14.82C20.9697 14.3 20.9297 13.88 20.8497 13.56C20.7697 13.24 20.6364 12.9933 20.4497 12.82C20.1297 12.54 19.743 12.4 19.2897 12.4C18.6764 12.4 18.203 12.5867 17.8697 12.96C17.5497 13.32 17.3897 13.84 17.3897 14.52V20H13.7697V3.4ZM34.1509 13.38C34.0309 12.8733 33.7843 12.4667 33.4109 12.16C33.0376 11.8533 32.5843 11.7 32.0509 11.7C31.4909 11.7 31.0309 11.8467 30.6709 12.14C30.3243 12.4333 30.1043 12.8467 30.0109 13.38H34.1509ZM29.9109 15.48C29.9109 17.04 30.6443 17.82 32.1109 17.82C32.8976 17.82 33.4909 17.5 33.8909 16.86H37.3909C36.6843 19.2067 34.9176 20.38 32.0909 20.38C31.2243 20.38 30.4309 20.2533 29.7109 20C28.9909 19.7333 28.3709 19.36 27.8509 18.88C27.3443 18.4 26.9509 17.8267 26.6709 17.16C26.3909 16.4933 26.2509 15.7467 26.2509 14.92C26.2509 14.0667 26.3843 13.3 26.6509 12.62C26.9176 11.9267 27.2976 11.34 27.7909 10.86C28.2843 10.38 28.8776 10.0133 29.5709 9.76C30.2776 9.49333 31.0709 9.36 31.9509 9.36C32.8176 9.36 33.5976 9.49333 34.2909 9.76C34.9843 10.0133 35.5709 10.3867 36.0509 10.88C36.5309 11.3733 36.8976 11.98 37.1509 12.7C37.4043 13.4067 37.5309 14.2067 37.5309 15.1V15.48H29.9109ZM42.8202 3.4V20H39.2002V3.4H42.8202ZM48.5139 3.4V20H44.8939V3.4H48.5139Z" fill="#DA291C"/>
<path d="M52.1621 4.92188H54.8379C56.127 4.92188 57.0645 5.2474 57.6504 5.89844C58.2363 6.55599 58.5293 7.59766 58.5293 9.02344C58.5293 11.0286 57.9401 12.3242 56.7617 12.9102C56.1693 13.1771 55.3132 13.3105 54.1934 13.3105V20H52.1621V4.92188ZM54.1934 11.5723C55.0332 11.5723 55.6126 11.403 55.9316 11.0645C56.2572 10.7194 56.4199 10.1074 56.4199 9.22852C56.4199 8.33008 56.2637 7.67253 55.9512 7.25586C55.6387 6.83919 55.1471 6.63086 54.4766 6.63086H54.1934V11.5723ZM65.3168 15.0293C65.3168 18.4473 64.2589 20.1562 62.143 20.1562C60.0271 20.1562 58.9691 18.4212 58.9691 14.9512C58.9691 11.4681 60.0238 9.72656 62.1332 9.72656C62.6801 9.72656 63.1521 9.83073 63.5492 10.0391C63.9529 10.2474 64.2849 10.5697 64.5453 11.0059C64.8057 11.4421 64.9978 11.9922 65.1215 12.6562C65.2517 13.3203 65.3168 14.1113 65.3168 15.0293ZM63.3832 14.9805C63.3832 13.6523 63.2953 12.7279 63.1195 12.207C62.9437 11.6797 62.6312 11.416 62.182 11.416C61.7393 11.416 61.4236 11.6764 61.2348 12.1973C61.059 12.7181 60.9711 13.6263 60.9711 14.9219C60.9711 16.2174 61.059 17.1224 61.2348 17.6367C61.4236 18.1576 61.7393 18.418 62.182 18.418C62.6247 18.418 62.934 18.1608 63.1098 17.6465C63.2921 17.1647 63.3832 16.276 63.3832 14.9805ZM65.6199 9.89258H67.5926L68.159 13.1445C68.2697 13.7956 68.3673 14.4238 68.452 15.0293C68.5431 15.6348 68.6147 16.224 68.6668 16.7969L68.6961 17.1484L68.7352 16.7773C68.7872 16.3086 68.8393 15.8789 68.8914 15.4883C68.95 15.0911 69.0118 14.7266 69.077 14.3945L69.2332 13.623L69.9266 9.89258H71.284L71.9383 13.623L72.1531 14.7949C72.1987 15.0163 72.241 15.293 72.2801 15.625C72.3191 15.9505 72.3582 16.3379 72.3973 16.7871L72.4363 17.1484C72.5535 15.9375 72.7195 14.7624 72.9344 13.623L73.6277 9.89258H75.4637L73.0906 20H71.8016L71.0301 16.1426C70.9389 15.6738 70.8608 15.1953 70.7957 14.707C70.7306 14.2122 70.6753 13.6882 70.6297 13.1348C70.6232 13.0697 70.6167 12.9915 70.6102 12.9004C70.6036 12.8092 70.5939 12.7018 70.5809 12.5781C70.5418 13.1706 70.4865 13.7467 70.4148 14.3066C70.3432 14.86 70.2553 15.4134 70.1512 15.9668L69.3699 20H68.0809L65.6199 9.89258ZM80.0734 16.5918H81.8117C81.675 18.9681 80.6984 20.1562 78.882 20.1562C78.3417 20.1562 77.8762 20.0553 77.4855 19.8535C77.1014 19.6517 76.7824 19.3392 76.5285 18.916C76.2746 18.4928 76.0858 17.9557 75.9621 17.3047C75.8449 16.6536 75.7863 15.8789 75.7863 14.9805C75.7863 13.1966 76.0337 11.875 76.5285 11.0156C77.0298 10.1562 77.8013 9.72656 78.843 9.72656C80.8677 9.72656 81.8801 11.5104 81.8801 15.0781V15.3125H77.6125C77.6125 17.474 78.0422 18.5547 78.9016 18.5547C79.6828 18.5547 80.0734 17.9004 80.0734 16.5918ZM79.9758 13.9648C79.8977 12.9036 79.7772 12.207 79.6145 11.875C79.4452 11.5039 79.1717 11.3184 78.7941 11.3184C78.41 11.3184 78.1366 11.5039 77.9738 11.875C77.8111 12.207 77.6906 12.9036 77.6125 13.9648H79.9758ZM83.15 9.89258H85.0152V11.1523C85.3342 10.6185 85.65 10.2441 85.9625 10.0293C86.275 9.81445 86.6884 9.69076 87.2027 9.6582V11.6113C87.0725 11.5918 86.9618 11.582 86.8707 11.582C86.2001 11.582 85.7216 11.7546 85.4352 12.0996C85.1552 12.4382 85.0152 13.0306 85.0152 13.877V20H83.15V9.89258ZM93.2383 5.23438V7.2168C92.6198 6.77409 92.0632 6.55273 91.5684 6.55273C91.0345 6.55273 90.5983 6.74154 90.2598 7.11914C89.9212 7.47721 89.752 7.95573 89.752 8.55469C89.752 9.08203 89.8724 9.53451 90.1133 9.91211C90.237 10.1139 90.4388 10.3743 90.7188 10.6934C91.0052 11.0124 91.373 11.3965 91.8223 11.8457C92.6491 12.6855 93.2122 13.4115 93.5117 14.0234C93.8112 14.6159 93.9609 15.3418 93.9609 16.2012C93.9609 17.3665 93.6322 18.3268 92.9746 19.082C92.3171 19.8177 91.474 20.1855 90.4453 20.1855C89.5794 20.1855 88.8405 19.9479 88.2285 19.4727V17.4609C88.9512 17.9883 89.6087 18.252 90.2012 18.252C90.7546 18.252 91.1875 18.0697 91.5 17.7051C91.8125 17.334 91.9688 16.8327 91.9688 16.2012C91.9688 15.6543 91.8483 15.1628 91.6074 14.7266C91.4837 14.5182 91.3112 14.2806 91.0898 14.0137C90.8685 13.7402 90.5918 13.4375 90.2598 13.1055C89.7454 12.5977 89.319 12.1484 88.9805 11.7578C88.6419 11.3672 88.3913 11.0254 88.2285 10.7324C87.916 10.1595 87.7598 9.43685 87.7598 8.56445C87.7598 7.38607 88.0658 6.45182 88.6777 5.76172C89.2962 5.0651 90.1263 4.7168 91.168 4.7168C91.8906 4.7168 92.5807 4.88932 93.2383 5.23438ZM94.1859 9.89258H96.2953L97.7797 16.9434L99.518 9.89258H101.412L97.2816 24.1406H95.3187L96.8715 19.1895L94.1859 9.89258ZM102.145 9.89258H104.011V11.0547C104.544 10.1693 105.235 9.72656 106.081 9.72656C106.901 9.72656 107.487 10.0488 107.839 10.6934C108.034 11.0579 108.132 11.7643 108.132 12.8125V20H106.266L106.257 13.2422C106.257 12.5586 106.175 12.0736 106.013 11.7871C105.85 11.5007 105.57 11.3574 105.173 11.3574C104.958 11.3574 104.776 11.3965 104.626 11.4746C104.483 11.5462 104.365 11.6667 104.274 11.8359C104.183 11.9987 104.115 12.2135 104.069 12.4805C104.03 12.7474 104.011 13.0762 104.011 13.4668V20H102.145V9.89258ZM113.982 10.0879V11.9922C113.721 11.6732 113.409 11.5137 113.044 11.5137C112.015 11.5137 111.501 12.627 111.501 14.8535C111.501 17.2168 112.012 18.3984 113.034 18.3984C113.321 18.3984 113.637 18.2715 113.982 18.0176V19.7656C113.487 20.026 112.986 20.1562 112.478 20.1562C110.473 20.1562 109.47 18.4505 109.47 15.0391C109.47 13.2227 109.717 11.8848 110.212 11.0254C110.707 10.1595 111.475 9.72656 112.517 9.72656C113.018 9.72656 113.506 9.84701 113.982 10.0879Z" fill="#FFCD00"/>
</svg>
