<svg width="26" height="26" viewBox="0 0 26 26" fill="none" xmlns="http://www.w3.org/2000/svg">
<g id="wpf:name" opacity="0.5">
<path id="Vector" d="M16.563 15.9C16.404 15.848 15.399 15.395 16.027 13.486H16.018C17.655 11.8 18.906 9.08701 18.906 6.41601C18.906 2.30901 16.175 0.156006 13.001 0.156006C9.825 0.156006 7.109 2.30801 7.109 6.41601C7.109 9.09801 8.353 11.822 10 13.504C10.642 15.188 9.494 15.813 9.254 15.901C5.93 17.103 2.03 19.294 2.03 21.457V22.268C2.03 25.215 7.744 25.885 13.032 25.885C18.328 25.885 23.97 25.215 23.97 22.268V21.457C23.97 19.229 20.051 17.055 16.563 15.9Z" fill="black"/>
</g>
</svg>
