<svg width="24" height="24" viewBox="0 0 24 24" fill="none" xmlns="http://www.w3.org/2000/svg">
<g id="license-plate-svgrepo-com 1">
<g id="Group">
<g id="Group_2">
<path id="Vector" d="M5.10895 11.2234L4.85043 12.1557H5.35579L5.10895 11.2234Z" fill="#7A7A7A"/>
</g>
</g>
<g id="Group_3">
<g id="Group_4">
<path id="Vector_2" d="M8.05465 12.1009H7.4239V12.5671H8.02718C8.15257 12.5671 8.2505 12.4849 8.2505 12.3399C8.2505 12.2028 8.16823 12.1009 8.05465 12.1009Z" fill="#7A7A7A"/>
</g>
</g>
<g id="Group_5">
<g id="Group_6">
<path id="Vector_3" d="M7.96845 11.0785H7.4239V11.5055H7.94492C8.04678 11.5054 8.15257 11.4624 8.15257 11.29C8.15257 11.1372 8.06637 11.0785 7.96845 11.0785Z" fill="#7A7A7A"/>
</g>
</g>
<g id="Group_7">
<g id="Group_8">
<path id="Vector_4" d="M0 16.0435V16.1596C0 17.3288 0.951186 18.28 2.12039 18.28H21.8796C23.0488 18.28 24 17.3288 24 16.1596V16.0435H0Z" fill="#7A7A7A"/>
</g>
</g>
<g id="Group_9">
<g id="Group_10">
<path id="Vector_5" d="M0 9.52174V14.4782H24V9.52174H0ZM5.64566 13.2095L5.47724 12.665H4.7368L4.57223 13.2095H3.76138L4.79947 10.4282H5.41846L6.45271 13.2095H5.64566ZM8.02719 13.2095H6.65999V10.4282H8.27398C8.66576 10.4282 8.90862 10.7886 8.90862 11.1411C8.90862 11.3996 8.7754 11.666 8.50901 11.7836C8.82636 11.8776 9.02609 12.1087 9.02609 12.4966C9.02614 12.998 8.57562 13.2095 8.02719 13.2095ZM10.5262 13.2331C9.75054 13.2331 9.20604 12.5083 9.20604 11.7954C9.20609 11.1176 9.70362 10.4125 10.5498 10.4125C11.0434 10.4125 11.4351 10.6554 11.6114 11.0197L11.0277 11.435C10.9376 11.1647 10.7065 11.0902 10.5341 11.0902C10.1502 11.0902 9.98173 11.4702 9.98173 11.8189C9.98173 12.2067 10.1894 12.5554 10.5419 12.5554C10.7182 12.5554 10.9376 12.4653 11.0159 12.2146L11.6388 12.5868C11.4821 12.998 10.9689 13.2331 10.5262 13.2331ZM13.1076 12.4614H11.8814V11.7954H13.1076V12.4614ZM15.3718 13.2096H13.558V12.5436H14.1143V11.1254C14.0281 11.2469 13.6795 11.4623 13.4679 11.4623V10.7808H13.4678C13.7499 10.7808 14.1064 10.4243 14.1142 10.4086H14.8742V12.5436H15.3717V13.2096H15.3718ZM17.7494 13.2095H15.6065C15.6065 12.4887 15.6927 12.1596 16.2881 11.8776C16.6133 11.7248 16.8954 11.5877 16.8954 11.3017C16.8954 11.1137 16.774 11.0549 16.6407 11.0549C16.437 11.0549 16.2137 11.192 16.0649 11.337L15.6065 10.8394C15.8142 10.6044 16.2373 10.3968 16.7465 10.3968C17.3812 10.3968 17.7454 10.718 17.7454 11.2899C17.7454 11.7209 17.5418 11.9167 17.1931 12.1204C16.9697 12.2497 16.7152 12.3751 16.7152 12.5435H17.7494V13.2095ZM18.9675 13.2448C18.5522 13.2448 18.2544 13.1037 18.0743 12.7903L18.4542 12.2733C18.4855 12.3046 18.5953 12.5631 18.9518 12.5631C19.1281 12.5631 19.3004 12.5005 19.3004 12.3359C19.3004 12.1322 19.0419 12.0695 18.5796 12.0695H18.4503V11.4545H18.5757C18.9204 11.4545 19.2299 11.3879 19.2299 11.192C19.2299 11.0471 19.0653 11.0432 19.0222 11.0432C18.7284 11.0432 18.5796 11.2077 18.509 11.2978L18.0389 10.7455C18.2466 10.5144 18.6657 10.3929 19.0183 10.3929C19.5981 10.3929 20.029 10.722 20.029 11.1529C20.029 11.4545 19.8175 11.6621 19.5237 11.7209C19.8645 11.7758 20.0761 12.0892 20.0761 12.4378C20.0761 13.0215 19.4885 13.2448 18.9675 13.2448Z" fill="#7A7A7A"/>
</g>
</g>
<g id="Group_11">
<g id="Group_12">
<path id="Vector_6" d="M21.8796 5.72005H2.12039C0.951186 5.72005 0 6.67128 0 7.84043V7.95654H24V7.84043C24 6.67123 23.0488 5.72005 21.8796 5.72005Z" fill="#7A7A7A"/>
</g>
</g>
</g>
</svg>
