<svg width="5" height="10" viewBox="0 0 5 10" fill="none" xmlns="http://www.w3.org/2000/svg">
<path d="M4 5.5V1.5C4 1.10218 3.84196 0.720644 3.56066 0.43934C3.27936 0.158035 2.89782 0 2.5 0C2.10218 0 1.72064 0.158035 1.43934 0.43934C1.15804 0.720644 1 1.10218 1 1.5V5.5C0.580235 5.81482 0.270167 6.25374 0.113716 6.75458C-0.0427343 7.25542 -0.0376348 7.79279 0.128292 8.29057C0.294219 8.78835 0.61256 9.2213 1.03822 9.52811C1.46389 9.83491 1.97529 10 2.5 10C3.02471 10 3.53611 9.83491 3.96178 9.52811C4.38744 9.2213 4.70578 8.78835 4.87171 8.29057C5.03763 7.79279 5.04273 7.25542 4.88628 6.75458C4.72983 6.25374 4.41976 5.81482 4 5.5ZM2.5 1C2.63261 1 2.75979 1.05268 2.85355 1.14645C2.94732 1.24021 3 1.36739 3 1.5V3H2V1.5C2 1.36739 2.05268 1.24021 2.14645 1.14645C2.24021 1.05268 2.36739 1 2.5 1Z" fill="#787878"/>
</svg>
