<svg width="15" height="15" viewBox="0 0 15 15" fill="none" xmlns="http://www.w3.org/2000/svg">
<g clip-path="url(#clip0_281_122)">
<path d="M14.8846 5.11302C11.1084 0.345163 3.89836 0.336813 0.115518 5.11302C-0.0676758 5.34429 -0.0286523 5.68033 0.202647 5.86349C0.433945 6.04666 0.769922 6.00766 0.953115 5.77636C4.30236 1.54762 10.6932 1.54185 14.0471 5.77636C14.1525 5.90952 14.3086 5.97895 14.4662 5.97895C14.5824 5.97895 14.6994 5.94119 14.7975 5.86349C15.0288 5.68027 15.0678 5.34429 14.8846 5.11302Z" fill="#231F20"/>
<path d="M2.55972 7.04486C2.37647 7.2761 2.41538 7.6121 2.64662 7.79533C2.74476 7.87311 2.86183 7.9109 2.97805 7.9109C3.13558 7.9109 3.29165 7.8415 3.39709 7.70843C5.49668 5.05885 9.49936 5.05399 11.6028 7.70843C11.7861 7.93967 12.1221 7.97858 12.3533 7.79533C12.5846 7.61207 12.6235 7.2761 12.4402 7.04486C9.9128 3.85542 5.09121 3.85027 2.55972 7.04486Z" fill="#231F20"/>
<path d="M5.00264 8.97655C4.81954 9.20791 4.85862 9.54386 5.08998 9.72699C5.32133 9.9101 5.65731 9.87102 5.84041 9.63966C6.68786 8.56898 8.31067 8.56719 9.15952 9.63966C9.34265 9.87102 9.67857 9.91013 9.90996 9.72699C10.1413 9.54386 10.1804 9.20791 9.99729 8.97655C8.72238 7.36575 6.27963 7.36318 5.00264 8.97655Z" fill="#231F20"/>
<path d="M7.50008 13.466C8.24348 13.466 8.84613 12.8634 8.84613 12.12C8.84613 11.3766 8.24348 10.7739 7.50008 10.7739C6.75668 10.7739 6.15404 11.3766 6.15404 12.12C6.15404 12.8634 6.75668 13.466 7.50008 13.466Z" fill="#231F20"/>
</g>
<defs>
<clipPath id="clip0_281_122">
<rect width="15" height="15" fill="white"/>
</clipPath>
</defs>
</svg>
